<?xml version="1.0" encoding="UTF-8" standalone="no"?>
<!-- Created with Inkscape (http://www.inkscape.org/) -->

<svg
   width="80.705231mm"
   height="80.7052mm"
   viewBox="0 0 80.705231 80.7052"
   version="1.1"
   id="svg5"
   xml:space="preserve"
   xmlns:inkscape="http://www.inkscape.org/namespaces/inkscape"
   xmlns:sodipodi="http://sodipodi.sourceforge.net/DTD/sodipodi-0.dtd"
   xmlns="http://www.w3.org/2000/svg"
   xmlns:svg="http://www.w3.org/2000/svg"><sodipodi:namedview
     id="namedview7"
     pagecolor="#505050"
     bordercolor="#ffffff"
     borderopacity="1"
     inkscape:showpageshadow="0"
     inkscape:pageopacity="0"
     inkscape:pagecheckerboard="1"
     inkscape:deskcolor="#505050"
     inkscape:document-units="mm"
     showgrid="false"
     inkscape:zoom="1.5180135"
     inkscape:cx="264.49041"
     inkscape:cy="595.84452"
     inkscape:window-width="1920"
     inkscape:window-height="1013"
     inkscape:window-x="-9"
     inkscape:window-y="29"
     inkscape:window-maximized="1"
     inkscape:current-layer="layer1" /><defs
     id="defs2"><inkscape:path-effect
       effect="offset"
       id="path-effect8704-3"
       is_visible="true"
       lpeversion="1.2"
       linejoin_type="miter"
       unit="px"
       offset="0"
       miter_limit="4"
       attempt_force_join="false"
       update_on_knot_move="true" /></defs><g
     inkscape:label="Layer 1"
     inkscape:groupmode="layer"
     id="layer1"
     transform="translate(-29.89745,-203.30419)"><path
       id="rect1049-3-9"
       style="fill:#7025bc;fill-opacity:1;stroke:#7025bc;stroke-width:0.529167;stroke-opacity:1"
       d="m 49.064233,203.56877 h 42.37166 c 10.471817,0 18.902197,8.43038 18.902197,18.9022 v 42.37165 c 0,10.47182 -8.43038,18.9022 -18.902197,18.9022 h -42.37166 c -10.47182,0 -18.9022,-8.43038 -18.9022,-18.9022 v -42.37165 c 0,-10.47182 8.43038,-18.9022 18.9022,-18.9022 z" /><g
       id="g10944"
       transform="translate(-70.126822,-5.7925507)"><path
         id="path122-59"
         style="fill:#ffffff;fill-opacity:1;stroke-width:0.746125"
         d="m 141.89418,219.73791 c -8.48934,-0.51954 -17.00812,3.78675 -21.24804,11.63282 -2.97872,5.51061 -3.56791,12.22902 -1.46485,18.14843 1.00136,2.81816 2.62927,5.24809 4.20313,7.75781 3.8153,6.08524 7.63001,12.17062 11.44531,18.25586 0.73094,1.16508 1.48088,2.26248 2.73047,2.95118 2.70514,1.49147 5.9877,0.56597 7.74219,-1.88672 2.6798,-3.74769 4.94427,-7.87032 7.39062,-11.77539 2.37558,-3.791 4.96149,-7.48642 7.07617,-11.43164 0.0137,-0.0243 0.0273,-0.0477 0.041,-0.0742 0.0148,-0.0275 0.0303,-0.0565 0.043,-0.084 3.03575,-5.96483 4.05081,-12.52255 1.5918,-18.90039 -2.05976,-5.34584 -6.0494,-9.90401 -11.23047,-12.41797 -2.66395,-1.29315 -5.49053,-2.0026 -8.32031,-2.17578 z m -2.23633,3.65821 c 1.23964,-0.0527 2.50047,0.0243 3.76563,0.24023 5.57928,0.95171 10.47751,4.46402 13.25976,9.37891 3.34524,5.91096 2.90205,12.46894 -0.13476,18.39257 -3.2692,6.1201 -7.35385,11.8853 -11.03711,17.76563 -0.91474,1.45978 -1.82939,2.91913 -2.74414,4.37891 -0.64538,1.03094 -1.32836,2.09582 -2.72266,1.86132 -0.92636,-0.15527 -1.34267,-0.8407 -1.79687,-1.54101 -3.33469,-5.1441 -6.51497,-10.39326 -9.77149,-15.58594 -1.2443,-1.9837 -2.49868,-3.96008 -3.73242,-5.95117 -2.43262,-3.92515 -3.55981,-8.50414 -2.83203,-13.10742 1.39376,-8.80901 9.06862,-15.4634 17.74609,-15.83203 z"
         inkscape:path-effect="#path-effect8704-3"
         inkscape:original-d="m 141.89418,219.73791 c -8.48934,-0.51954 -17.00812,3.78675 -21.24804,11.63282 -2.97872,5.51061 -3.56791,12.22902 -1.46485,18.14843 1.00136,2.81816 2.62927,5.24809 4.20313,7.75781 3.8153,6.08524 7.63001,12.17062 11.44531,18.25586 0.73094,1.16508 1.48088,2.26248 2.73047,2.95118 2.70514,1.49147 5.9877,0.56597 7.74219,-1.88672 2.6798,-3.74769 4.94427,-7.87032 7.39062,-11.77539 2.37558,-3.791 4.96149,-7.48642 7.07617,-11.43164 0.0137,-0.0243 0.0273,-0.0477 0.041,-0.0742 0.0148,-0.0275 0.0303,-0.0565 0.043,-0.084 3.03575,-5.96483 4.05081,-12.52255 1.5918,-18.90039 -2.05976,-5.34584 -6.0494,-9.90401 -11.23047,-12.41797 -2.66395,-1.29315 -5.49053,-2.0026 -8.32031,-2.17578 z m -2.23633,3.65821 c 1.23964,-0.0527 2.50047,0.0243 3.76563,0.24023 5.57928,0.95171 10.47751,4.46402 13.25976,9.37891 3.34524,5.91096 2.90205,12.46894 -0.13476,18.39257 -3.2692,6.1201 -7.35385,11.8853 -11.03711,17.76563 -0.91474,1.45978 -1.82939,2.91913 -2.74414,4.37891 -0.64538,1.03094 -1.32836,2.09582 -2.72266,1.86132 -0.92636,-0.15527 -1.34267,-0.8407 -1.79687,-1.54101 -3.33469,-5.1441 -6.51497,-10.39326 -9.77149,-15.58594 -1.2443,-1.9837 -2.49868,-3.96008 -3.73242,-5.95117 -2.43262,-3.92515 -3.55981,-8.50414 -2.83203,-13.10742 1.39376,-8.80901 9.06862,-15.4634 17.74609,-15.83203 z" /><rect
         style="fill:#7025bc;fill-opacity:1;stroke:#7025bc;stroke-width:0;stroke-dasharray:none;stroke-opacity:0"
         id="rect8920-4"
         width="11.590669"
         height="10.201749"
         x="145.1425"
         y="259.2807"
         rx="5.1334996"
         ry="0" /><path
         stroke-linecap="round"
         fill="none"
         stroke-linejoin="miter"
         d="m 147.21638,267.79106 h -3.44031 c -1.90025,0 -3.44031,-1.54112 -3.44031,-3.44032 v -25.40043"
         stroke="#ffffff"
         stroke-width="3.44771"
         stroke-opacity="1"
         stroke-miterlimit="4"
         id="path128-0"
         style="fill:none;stroke:#ffffff;stroke-opacity:1" /><path
         stroke-linecap="round"
         fill="none"
         stroke-linejoin="round"
         d="m 135.1642,242.54366 5.17156,-6.89542 5.17156,6.89542"
         stroke="#ffffff"
         stroke-width="3.44771"
         stroke-opacity="1"
         stroke-miterlimit="4"
         id="path130-8"
         style="stroke:#ffffff;stroke-opacity:1" /><rect
         style="fill:#ffff3e;fill-opacity:1;stroke:#ffffff;stroke-width:1.97145;stroke-dasharray:none;stroke-opacity:1"
         id="rect6511-1"
         width="5.0794048"
         height="1.4876324"
         x="144.56432"
         y="267.05667"
         ry="0.7438162" /><rect
         style="fill:#ffffff;fill-opacity:1;stroke:#ffffff;stroke-width:0;stroke-dasharray:none;stroke-opacity:1"
         id="rect8706-1"
         width="13.482506"
         height="3.6694465"
         x="-133.7545"
         y="265.45599"
         ry="1.8347232"
         transform="matrix(0.52422532,-0.8515796,0.83043241,0.55711938,0,0)" /><rect
         style="fill:#ffffff;fill-opacity:1;stroke:#ffffff;stroke-width:0;stroke-dasharray:none;stroke-opacity:1"
         id="rect9095-5"
         width="3.5202062"
         height="0.97825968"
         x="-155.92749"
         y="266.37689"
         ry="0.48912984"
         rx="0"
         transform="rotate(-58.963684)" /></g></g></svg>
