<?xml version="1.0" encoding="UTF-8" standalone="no"?>
<!-- Created with Inkscape (http://www.inkscape.org/) -->

<svg
   width="80.705238mm"
   height="80.705223mm"
   viewBox="0 0 80.705238 80.705223"
   version="1.1"
   id="svg5"
   xml:space="preserve"
   xmlns:inkscape="http://www.inkscape.org/namespaces/inkscape"
   xmlns:sodipodi="http://sodipodi.sourceforge.net/DTD/sodipodi-0.dtd"
   xmlns="http://www.w3.org/2000/svg"
   xmlns:svg="http://www.w3.org/2000/svg"><sodipodi:namedview
     id="namedview7"
     pagecolor="#505050"
     bordercolor="#ffffff"
     borderopacity="1"
     inkscape:showpageshadow="0"
     inkscape:pageopacity="0"
     inkscape:pagecheckerboard="1"
     inkscape:deskcolor="#505050"
     inkscape:document-units="mm"
     showgrid="false"
     inkscape:zoom="1.5180135"
     inkscape:cx="264.49041"
     inkscape:cy="595.84452"
     inkscape:window-width="1920"
     inkscape:window-height="1013"
     inkscape:window-x="-9"
     inkscape:window-y="29"
     inkscape:window-maximized="1"
     inkscape:current-layer="layer1" /><defs
     id="defs2"><inkscape:path-effect
       effect="offset"
       id="path-effect8704"
       is_visible="true"
       lpeversion="1.2"
       linejoin_type="miter"
       unit="px"
       offset="0"
       miter_limit="4"
       attempt_force_join="false"
       update_on_knot_move="true" /></defs><g
     inkscape:label="Layer 1"
     inkscape:groupmode="layer"
     id="layer1"
     transform="translate(-6.7267968,-118.07758)"><path
       id="rect1049"
       style="fill:#ffffff;stroke:#353535;stroke-width:0.529167;stroke-opacity:0"
       d="m 25.893581,118.34216 h 42.371661 c 10.47182,0 18.9022,8.43038 18.9022,18.9022 v 42.37165 c 0,10.47182 -8.43038,18.9022 -18.9022,18.9022 H 25.893581 c -10.471819,0 -18.9022008,-8.43038 -18.9022008,-18.9022 v -42.37165 c 0,-10.47182 8.4303818,-18.9022 18.9022008,-18.9022 z" /><path
       id="path122"
       style="fill:#7025bc;fill-opacity:1;stroke-width:0.746125"
       d="m 49.083984,128.91406 c -8.489344,-0.51954 -17.008124,3.78675 -21.248046,11.63282 -2.97872,5.51061 -3.567904,12.22902 -1.464844,18.14843 1.00136,2.81816 2.629265,5.24809 4.203125,7.75781 3.8153,6.08524 7.630012,12.17062 11.445312,18.25586 0.73094,1.16508 1.480879,2.26248 2.730469,2.95118 2.70514,1.49147 5.987707,0.56597 7.742188,-1.88672 2.6798,-3.74769 4.944273,-7.87032 7.390624,-11.77539 2.37558,-3.791 4.961492,-7.48642 7.076172,-11.43164 0.0137,-0.0243 0.02732,-0.0477 0.04102,-0.0742 0.0148,-0.0275 0.03027,-0.0565 0.04297,-0.084 3.03575,-5.96483 4.050817,-12.52255 1.591797,-18.90039 -2.05976,-5.34584 -6.049397,-9.90401 -11.230469,-12.41797 -2.663945,-1.29315 -5.490531,-2.0026 -8.320313,-2.17578 z m -2.236328,3.65821 c 1.23964,-0.0527 2.500462,0.0243 3.765625,0.24023 5.57928,0.95171 10.477516,4.46402 13.259766,9.37891 3.34524,5.91096 2.902044,12.46894 -0.134766,18.39257 -3.2692,6.1201 -7.353849,11.8853 -11.037109,17.76563 -0.91474,1.45978 -1.829391,2.91913 -2.744141,4.37891 -0.64538,1.03094 -1.328356,2.09582 -2.722656,1.86132 -0.92636,-0.15527 -1.342675,-0.8407 -1.796875,-1.54101 -3.33469,-5.1441 -6.514964,-10.39326 -9.771484,-15.58594 -1.2443,-1.9837 -2.498682,-3.96008 -3.732422,-5.95117 -2.43262,-3.92515 -3.559812,-8.50414 -2.832032,-13.10742 1.393762,-8.80901 9.068619,-15.4634 17.746094,-15.83203 z"
       inkscape:path-effect="#path-effect8704"
       inkscape:original-d="m 49.083984,128.91406 c -8.489344,-0.51954 -17.008124,3.78675 -21.248046,11.63282 -2.97872,5.51061 -3.567904,12.22902 -1.464844,18.14843 1.00136,2.81816 2.629265,5.24809 4.203125,7.75781 3.8153,6.08524 7.630012,12.17062 11.445312,18.25586 0.73094,1.16508 1.480879,2.26248 2.730469,2.95118 2.70514,1.49147 5.987707,0.56597 7.742188,-1.88672 2.6798,-3.74769 4.944273,-7.87032 7.390624,-11.77539 2.37558,-3.791 4.961492,-7.48642 7.076172,-11.43164 0.0137,-0.0243 0.02732,-0.0477 0.04102,-0.0742 0.0148,-0.0275 0.03027,-0.0565 0.04297,-0.084 3.03575,-5.96483 4.050817,-12.52255 1.591797,-18.90039 -2.05976,-5.34584 -6.049397,-9.90401 -11.230469,-12.41797 -2.663945,-1.29315 -5.490531,-2.0026 -8.320313,-2.17578 z m -2.236328,3.65821 c 1.23964,-0.0527 2.500462,0.0243 3.765625,0.24023 5.57928,0.95171 10.477516,4.46402 13.259766,9.37891 3.34524,5.91096 2.902044,12.46894 -0.134766,18.39257 -3.2692,6.1201 -7.353849,11.8853 -11.037109,17.76563 -0.91474,1.45978 -1.829391,2.91913 -2.744141,4.37891 -0.64538,1.03094 -1.328356,2.09582 -2.722656,1.86132 -0.92636,-0.15527 -1.342675,-0.8407 -1.796875,-1.54101 -3.33469,-5.1441 -6.514964,-10.39326 -9.771484,-15.58594 -1.2443,-1.9837 -2.498682,-3.96008 -3.732422,-5.95117 -2.43262,-3.92515 -3.559812,-8.50414 -2.832032,-13.10742 1.393762,-8.80901 9.068619,-15.4634 17.746094,-15.83203 z" /><rect
       style="fill:#ffffff;fill-opacity:1;stroke:#ffffff;stroke-width:0;stroke-dasharray:none;stroke-opacity:1"
       id="rect8920"
       width="11.590669"
       height="10.201749"
       x="52.332306"
       y="168.45686"
       rx="5.1334996"
       ry="0" /><g
       id="g2701"
       transform="translate(-37.386444,-20.131162)"><path
         stroke-linecap="round"
         fill="none"
         stroke-linejoin="miter"
         d="m 91.792632,197.09837 h -3.440318 c -1.90025,0 -3.44031,-1.54112 -3.44031,-3.44032 v -25.40043"
         stroke="#ffffff"
         stroke-width="3.44771"
         stroke-opacity="1"
         stroke-miterlimit="4"
         id="path128"
         style="fill:none;stroke:#7025bc;stroke-opacity:1" /><path
         stroke-linecap="round"
         fill="none"
         stroke-linejoin="round"
         d="m 79.740443,171.85097 5.17156,-6.89542 5.17156,6.89542"
         stroke="#ffffff"
         stroke-width="3.44771"
         stroke-opacity="1"
         stroke-miterlimit="4"
         id="path130"
         style="stroke:#7025bc;stroke-opacity:1" /></g><rect
       style="fill:#ffff3e;fill-opacity:1;stroke:#7025bc;stroke-width:1.97145;stroke-dasharray:none;stroke-opacity:1"
       id="rect6511"
       width="5.0794048"
       height="1.4876324"
       x="51.754112"
       y="176.23283"
       ry="0.7438162" /><rect
       style="fill:#7025bc;fill-opacity:1;stroke:#7025bc;stroke-width:0;stroke-dasharray:none;stroke-opacity:1"
       id="rect8706"
       width="13.482506"
       height="3.6694465"
       x="-110.01964"
       y="138.71165"
       ry="1.8347232"
       transform="matrix(0.52422532,-0.8515796,0.83043241,0.55711938,0,0)" /><rect
       style="fill:#7025bc;fill-opacity:1;stroke:#7025bc;stroke-width:0;stroke-dasharray:none;stroke-opacity:1"
       id="rect9095"
       width="3.5202062"
       height="0.97825968"
       x="-125.95712"
       y="140.02628"
       ry="0.48912984"
       rx="0"
       transform="rotate(-58.963684)" /></g></svg>
